<svg xmlns="http://www.w3.org/2000/svg" width="19" height="18" viewBox="0 0 19 18">
    <g fill="none" fill-rule="evenodd">
        <g fill="#999">
            <g>
                <g>
                    <path d="M56.888 27.398c.54 0 .54 0 1.382-.31.843-.312.843-.312 1.773-.818.93-.507.93-.507 1.751-1.088 1.652.033 1.652.033 3.109-.303 1.457-.336 1.457-.336 2.656-.983 1.2-.648 1.2-.648 2.063-1.557.863-.909.863-.909 1.336-2.017.473-1.108.473-1.108.473-2.362 0-1.502 0-1.502-.697-2.814-.697-1.311-.697-1.311-1.934-2.307s-1.237-.996-2.876-1.557c-1.64-.56-1.64-.56-3.516-.56-1.867 0-1.867 0-3.503.56-1.635.56-1.635.56-2.876 1.557-1.24.996-1.24.996-1.938 2.307-.697 1.312-.697 1.312-.697 2.814 0 1.287 0 1.287.51 2.45.51 1.161.51 1.161 1.432 2.087.921.925.921.925 2.15 1.515-.166.323-.166.323-.41.705-.246.382-.246.382-.486.73-.241.35-.241.35-.416.574-.232.307-.232.307-.22.63.013.324.013.324.258.536.245.211.245.211.676.211zm.818-1.473c-.02-.029-.02-.029.02-.087.316-.382.316-.382.706-.913.39-.531.39-.531.598-.922.174-.315.174-.315.104-.585-.07-.27-.07-.27-.444-.444-1.22-.564-1.22-.564-2.076-1.34-.855-.777-.855-.777-1.303-1.706-.448-.93-.448-.93-.448-1.968 0-1.187 0-1.187.581-2.237s.581-1.05 1.615-1.847c1.033-.796 1.033-.796 2.407-1.245 1.374-.448 1.374-.448 2.942-.448 1.586 0 1.586 0 2.955.448 1.37.449 1.37.449 2.404 1.245 1.033.797 1.033.797 1.614 1.847.581 1.05.581 1.05.581 2.237 0 1.196 0 1.196-.581 2.242s-.581 1.046-1.614 1.842c-1.034.797-1.034.797-2.404 1.25-1.37.452-1.37.452-2.955.452-.108 0-.108 0-.278-.008-.17-.009-.17-.009-.394-.009-.249-.008-.249-.008-.452.075-.204.083-.204.083-.436.266-.473.348-.473.348-1.054.726-.581.378-.581.378-1.121.685-.54.307-.54.307-.888.448-.058.025-.058.025-.079-.004z" transform="translate(-55 -1055) translate(0 1045) translate(2)"/>
                </g>
            </g>
        </g>
    </g>
</svg>
