<svg width="18" height="19" viewBox="0 0 18 19" xmlns="http://www.w3.org/2000/svg">
    <path d="M4.333 18.24h9.403c.63 0 1.126-.178 1.485-.534.36-.356.54-.852.54-1.488V9.885h.252c.37-.015.66-.142.87-.384.21-.241.315-.553.315-.934V6.65c0-.401-.114-.723-.341-.965-.228-.242-.541-.363-.94-.363h-2.77a2.37 2.37 0 0 0 .769-.858c.184-.347.276-.74.276-1.18 0-.476-.109-.892-.326-1.251a2.255 2.255 0 0 0-.895-.839c-.38-.2-.819-.3-1.32-.3-.636 0-1.185.178-1.646.535-.461.356-.786.843-.975 1.46-.189-.617-.512-1.104-.97-1.46C7.6 1.072 7.05.894 6.407.894c-.496 0-.935.1-1.316.3-.382.2-.68.48-.895.839-.215.359-.323.775-.323 1.25a2.38 2.38 0 0 0 1.047 2.038h-2.77c-.396 0-.709.122-.938.364-.228.242-.343.564-.343.965v1.917c0 .381.105.693.314.934.21.242.5.37.869.384h.253v6.333c0 .636.178 1.132.536 1.488.357.356.854.533 1.49.533zm4.093-.612H4.347c-.448 0-.793-.12-1.035-.36-.242-.239-.362-.585-.362-1.037V9.9h5.476v7.727zm1.214 0V9.901h5.47v6.33c0 .452-.12.798-.358 1.038-.239.24-.583.36-1.033.36H9.64zM8.426 9.27h-6.2c-.232 0-.407-.066-.526-.2-.12-.132-.18-.312-.18-.539V6.69c0-.23.06-.412.18-.544.119-.132.294-.198.525-.198h6.201v3.321zm1.214 0V5.948h6.206c.225 0 .398.066.52.198.121.132.182.313.182.545v1.84c0 .226-.06.406-.182.539s-.295.199-.52.199H9.64zM8.494 5.322H7.48c-.785 0-1.413-.19-1.884-.567a1.797 1.797 0 0 1-.706-1.47c0-.426.142-.765.427-1.017.284-.252.654-.378 1.109-.378.612 0 1.11.227 1.493.68.383.452.575 1.055.575 1.807v.945zm1.078 0v-.945c0-.752.191-1.355.573-1.807.382-.453.878-.68 1.489-.68.456 0 .828.126 1.114.378.285.252.428.591.428 1.018 0 .601-.235 1.09-.706 1.469-.47.378-1.099.567-1.883.567H9.572z" fill="#999" fill-rule="nonzero"/>
</svg>
