<svg width="18" height="16" viewBox="0 0 18 16" xmlns="http://www.w3.org/2000/svg" xmlns:xlink="http://www.w3.org/1999/xlink">
    <defs>
        <path id="0uulsye2na" d="M0 0h18v16H0z"/>
    </defs>
    <g fill="none" fill-rule="evenodd">
        <mask id="5w2m64sskb" fill="#fff">
            <use xlink:href="#0uulsye2na"/>
        </mask>
        <path d="M13.828 14.579c.423 0 .612-.188.612-.613V6.339L9.163 1.62c-.057-.052-.112-.078-.166-.078-.049 0-.106.028-.158.077L3.553 6.34v7.626c0 .425.189.613.612.613h2.449V9.701c0-.43.308-.729.748-.729h3.27c.444 0 .742.294.742.729v4.878h2.454zM3.945 16c-1.149 0-1.836-.665-1.836-1.777V7.629l-.767.682a.83.83 0 0 1-.6.265c-.43 0-.742-.285-.742-.678 0-.226.08-.406.252-.567L8.011.405A1.45 1.45 0 0 1 8.997 0c.352 0 .705.144.993.407l3.025 2.702V.679c0-.4.283-.679.689-.679h.861c.406 0 .69.279.69.679v4.427l2.484 2.223a.74.74 0 0 1 .261.569c0 .393-.315.678-.748.678-.223 0-.421-.088-.608-.271l-.76-.676v6.594c0 1.112-.686 1.777-1.835 1.777H3.945z" fill="#989898" mask="url(#5w2m64sskb)"/>
    </g>
</svg>
