<svg xmlns="http://www.w3.org/2000/svg" width="16" height="16" viewBox="0 0 16 16">
    <g fill="none" fill-rule="evenodd">
        <g fill="#999">
            <g>
                <g>
                    <path d="M57.722 18.725c.938 0 .938 0 1.718-.47.78-.468.78-.468 1.245-1.245.465-.776.465-.776.465-1.73 0-.93 0-.93-.465-1.71-.465-.78-.465-.78-1.245-1.245-.78-.465-.78-.465-1.718-.465-.955 0-.955 0-1.735.465-.78.465-.78.465-1.245 1.245-.465.78-.465.78-.465 1.71 0 .954 0 .954.465 1.73.465.777.465.777 1.245 1.246s.78.469 1.735.469zm8.616 0c.938 0 .938 0 1.718-.47.78-.468.78-.468 1.245-1.245.465-.776.465-.776.465-1.73 0-.93 0-.93-.465-1.71-.464-.78-.464-.78-1.245-1.245-.78-.465-.78-.465-1.718-.465-.955 0-.955 0-1.73.465-.777.465-.777.465-1.246 1.245s-.469.78-.469 1.71c0 .954 0 .954.47 1.73.468.777.468.777 1.244 1.246s.776.469 1.731.469zm-8.616-1.353c-.598 0-.598 0-1.071-.278-.473-.279-.473-.279-.751-.748s-.278-.469-.278-1.058c0-.581 0-.581.278-1.058.278-.478.278-.478.751-.764.473-.286.473-.286 1.07-.286.582 0 .582 0 1.05.286.47.286.47.286.752.764.282.477.282.477.282 1.058 0 .59 0 .59-.282 1.058-.282.47-.282.47-.751.748-.47.278-.47.278-1.05.278zm8.616 0c-.598 0-.598 0-1.07-.278-.474-.279-.474-.279-.752-.748s-.278-.469-.278-1.058c0-.581 0-.581.278-1.058.278-.478.278-.478.751-.764.473-.286.473-.286 1.071-.286.581 0 .581 0 1.054.286.473.286.473.286.751.764.279.477.279.477.279 1.058 0 .59 0 .59-.279 1.058-.278.47-.278.47-.75.748-.474.278-.474.278-1.055.278zm-8.616 9.438c.938 0 .938 0 1.718-.47.78-.468.78-.468 1.245-1.249.465-.78.465-.78.465-1.726 0-.93 0-.93-.465-1.71-.465-.78-.465-.78-1.245-1.25-.78-.468-.78-.468-1.718-.468-.955 0-.955 0-1.735.469-.78.469-.78.469-1.245 1.249-.465.78-.465.78-.465 1.71 0 .946 0 .946.465 1.726s.465.78 1.245 1.25c.78.469.78.469 1.735.469zm8.616 0c.938 0 .938 0 1.718-.47.78-.468.78-.468 1.245-1.249.465-.78.465-.78.465-1.726 0-.93 0-.93-.465-1.71-.464-.78-.464-.78-1.245-1.25-.78-.468-.78-.468-1.718-.468-.955 0-.955 0-1.73.469-.777.469-.777.469-1.246 1.249-.469.78-.469.78-.469 1.71 0 .946 0 .946.47 1.726.468.78.468.78 1.244 1.25.776.469.776.469 1.731.469zm-8.616-1.362c-.598 0-.598 0-1.071-.274s-.473-.274-.751-.743-.278-.469-.278-1.066c0-.573 0-.573.278-1.054.278-.482.278-.482.751-.764.473-.282.473-.282 1.07-.282.582 0 .582 0 1.05.282.47.282.47.282.752.764.282.481.282.481.282 1.054 0 .597 0 .597-.282 1.066-.282.47-.282.47-.751.743-.47.274-.47.274-1.05.274zm8.616 0c-.598 0-.598 0-1.07-.274-.474-.274-.474-.274-.752-.743s-.278-.469-.278-1.066c0-.573 0-.573.278-1.054.278-.482.278-.482.751-.764.473-.282.473-.282 1.071-.282.581 0 .581 0 1.054.282.473.282.473.282.751.764.279.481.279.481.279 1.054 0 .597 0 .597-.279 1.066-.278.47-.278.47-.75.743-.474.274-.474.274-1.055.274z" transform="translate(-304 -1056) translate(0 1045) translate(250)"/>
                </g>
            </g>
        </g>
    </g>
</svg>
